<?xml version="1.0" encoding="UTF-8"?>
<svg width="162px" height="74px" viewBox="0 0 162 74" version="1.1" xmlns="http://www.w3.org/2000/svg" xmlns:xlink="http://www.w3.org/1999/xlink">
    <title>Group 14 Copy 4</title>
    <g id="Cosmos_casion" stroke="none" stroke-width="1" fill="none" fill-rule="evenodd" opacity="0.08">
        <g id="Cosmos_Casino/01a_main" transform="translate(-239.000000, -462.000000)" fill="#FFFFFF">
            <g id="Group-14-Copy-4" transform="translate(239.000000, 462.000000)">
                <g id="Group-13">
                    <circle id="Oval" cx="1" cy="1" r="1"></circle>
                    <circle id="Oval-Copy-53" cx="9" cy="1" r="1"></circle>
                    <circle id="Oval-Copy-54" cx="17" cy="1" r="1"></circle>
                    <circle id="Oval-Copy-55" cx="25" cy="1" r="1"></circle>
                    <circle id="Oval-Copy-56" cx="33" cy="1" r="1"></circle>
                    <circle id="Oval-Copy-57" cx="41" cy="1" r="1"></circle>
                    <circle id="Oval-Copy-58" cx="49" cy="1" r="1"></circle>
                    <circle id="Oval-Copy-59" cx="57" cy="1" r="1"></circle>
                    <circle id="Oval-Copy-60" cx="65" cy="1" r="1"></circle>
                    <circle id="Oval-Copy-61" cx="73" cy="1" r="1"></circle>
                    <circle id="Oval-Copy-62" cx="81" cy="1" r="1"></circle>
                    <circle id="Oval-Copy-63" cx="89" cy="1" r="1"></circle>
                    <circle id="Oval-Copy-64" cx="97" cy="1" r="1"></circle>
                    <circle id="Oval-Copy-65" cx="105" cy="1" r="1"></circle>
                    <circle id="Oval-Copy-66" cx="113" cy="1" r="1"></circle>
                    <circle id="Oval-Copy-67" cx="121" cy="1" r="1"></circle>
                    <circle id="Oval-Copy-68" cx="129" cy="1" r="1"></circle>
                    <circle id="Oval-Copy-69" cx="137" cy="1" r="1"></circle>
                    <circle id="Oval-Copy-70" cx="145" cy="1" r="1"></circle>
                    <circle id="Oval-Copy-71" cx="153" cy="1" r="1"></circle>
                    <circle id="Oval-Copy-72" cx="161" cy="1" r="1"></circle>
                </g>
                <g id="Group-13-Copy" transform="translate(0.000000, 8.000000)">
                    <circle id="Oval" cx="1" cy="1" r="1"></circle>
                    <circle id="Oval-Copy-53" cx="9" cy="1" r="1"></circle>
                    <circle id="Oval-Copy-54" cx="17" cy="1" r="1"></circle>
                    <circle id="Oval-Copy-55" cx="25" cy="1" r="1"></circle>
                    <circle id="Oval-Copy-56" cx="33" cy="1" r="1"></circle>
                    <circle id="Oval-Copy-57" cx="41" cy="1" r="1"></circle>
                    <circle id="Oval-Copy-58" cx="49" cy="1" r="1"></circle>
                    <circle id="Oval-Copy-59" cx="57" cy="1" r="1"></circle>
                    <circle id="Oval-Copy-60" cx="65" cy="1" r="1"></circle>
                    <circle id="Oval-Copy-61" cx="73" cy="1" r="1"></circle>
                    <circle id="Oval-Copy-62" cx="81" cy="1" r="1"></circle>
                    <circle id="Oval-Copy-63" cx="89" cy="1" r="1"></circle>
                    <circle id="Oval-Copy-64" cx="97" cy="1" r="1"></circle>
                    <circle id="Oval-Copy-65" cx="105" cy="1" r="1"></circle>
                    <circle id="Oval-Copy-66" cx="113" cy="1" r="1"></circle>
                    <circle id="Oval-Copy-67" cx="121" cy="1" r="1"></circle>
                    <circle id="Oval-Copy-68" cx="129" cy="1" r="1"></circle>
                    <circle id="Oval-Copy-69" cx="137" cy="1" r="1"></circle>
                    <circle id="Oval-Copy-70" cx="145" cy="1" r="1"></circle>
                    <circle id="Oval-Copy-71" cx="153" cy="1" r="1"></circle>
                    <circle id="Oval-Copy-72" cx="161" cy="1" r="1"></circle>
                </g>
                <g id="Group-13-Copy-2" transform="translate(0.000000, 16.000000)">
                    <circle id="Oval" cx="1" cy="1" r="1"></circle>
                    <circle id="Oval-Copy-53" cx="9" cy="1" r="1"></circle>
                    <circle id="Oval-Copy-54" cx="17" cy="1" r="1"></circle>
                    <circle id="Oval-Copy-55" cx="25" cy="1" r="1"></circle>
                    <circle id="Oval-Copy-56" cx="33" cy="1" r="1"></circle>
                    <circle id="Oval-Copy-57" cx="41" cy="1" r="1"></circle>
                    <circle id="Oval-Copy-58" cx="49" cy="1" r="1"></circle>
                    <circle id="Oval-Copy-59" cx="57" cy="1" r="1"></circle>
                    <circle id="Oval-Copy-60" cx="65" cy="1" r="1"></circle>
                    <circle id="Oval-Copy-61" cx="73" cy="1" r="1"></circle>
                    <circle id="Oval-Copy-62" cx="81" cy="1" r="1"></circle>
                    <circle id="Oval-Copy-63" cx="89" cy="1" r="1"></circle>
                    <circle id="Oval-Copy-64" cx="97" cy="1" r="1"></circle>
                    <circle id="Oval-Copy-65" cx="105" cy="1" r="1"></circle>
                    <circle id="Oval-Copy-66" cx="113" cy="1" r="1"></circle>
                    <circle id="Oval-Copy-67" cx="121" cy="1" r="1"></circle>
                    <circle id="Oval-Copy-68" cx="129" cy="1" r="1"></circle>
                    <circle id="Oval-Copy-69" cx="137" cy="1" r="1"></circle>
                    <circle id="Oval-Copy-70" cx="145" cy="1" r="1"></circle>
                    <circle id="Oval-Copy-71" cx="153" cy="1" r="1"></circle>
                    <circle id="Oval-Copy-72" cx="161" cy="1" r="1"></circle>
                </g>
                <g id="Group-13-Copy-3" transform="translate(0.000000, 24.000000)">
                    <circle id="Oval" cx="1" cy="1" r="1"></circle>
                    <circle id="Oval-Copy-53" cx="9" cy="1" r="1"></circle>
                    <circle id="Oval-Copy-54" cx="17" cy="1" r="1"></circle>
                    <circle id="Oval-Copy-55" cx="25" cy="1" r="1"></circle>
                    <circle id="Oval-Copy-56" cx="33" cy="1" r="1"></circle>
                    <circle id="Oval-Copy-57" cx="41" cy="1" r="1"></circle>
                    <circle id="Oval-Copy-58" cx="49" cy="1" r="1"></circle>
                    <circle id="Oval-Copy-59" cx="57" cy="1" r="1"></circle>
                    <circle id="Oval-Copy-60" cx="65" cy="1" r="1"></circle>
                    <circle id="Oval-Copy-61" cx="73" cy="1" r="1"></circle>
                    <circle id="Oval-Copy-62" cx="81" cy="1" r="1"></circle>
                    <circle id="Oval-Copy-63" cx="89" cy="1" r="1"></circle>
                    <circle id="Oval-Copy-64" cx="97" cy="1" r="1"></circle>
                    <circle id="Oval-Copy-65" cx="105" cy="1" r="1"></circle>
                    <circle id="Oval-Copy-66" cx="113" cy="1" r="1"></circle>
                    <circle id="Oval-Copy-67" cx="121" cy="1" r="1"></circle>
                    <circle id="Oval-Copy-68" cx="129" cy="1" r="1"></circle>
                    <circle id="Oval-Copy-69" cx="137" cy="1" r="1"></circle>
                    <circle id="Oval-Copy-70" cx="145" cy="1" r="1"></circle>
                    <circle id="Oval-Copy-71" cx="153" cy="1" r="1"></circle>
                    <circle id="Oval-Copy-72" cx="161" cy="1" r="1"></circle>
                </g>
                <g id="Group-13-Copy-4" transform="translate(0.000000, 32.000000)">
                    <circle id="Oval" cx="1" cy="1" r="1"></circle>
                    <circle id="Oval-Copy-53" cx="9" cy="1" r="1"></circle>
                    <circle id="Oval-Copy-54" cx="17" cy="1" r="1"></circle>
                    <circle id="Oval-Copy-55" cx="25" cy="1" r="1"></circle>
                    <circle id="Oval-Copy-56" cx="33" cy="1" r="1"></circle>
                    <circle id="Oval-Copy-57" cx="41" cy="1" r="1"></circle>
                    <circle id="Oval-Copy-58" cx="49" cy="1" r="1"></circle>
                    <circle id="Oval-Copy-59" cx="57" cy="1" r="1"></circle>
                    <circle id="Oval-Copy-60" cx="65" cy="1" r="1"></circle>
                    <circle id="Oval-Copy-61" cx="73" cy="1" r="1"></circle>
                    <circle id="Oval-Copy-62" cx="81" cy="1" r="1"></circle>
                    <circle id="Oval-Copy-63" cx="89" cy="1" r="1"></circle>
                    <circle id="Oval-Copy-64" cx="97" cy="1" r="1"></circle>
                    <circle id="Oval-Copy-65" cx="105" cy="1" r="1"></circle>
                    <circle id="Oval-Copy-66" cx="113" cy="1" r="1"></circle>
                    <circle id="Oval-Copy-67" cx="121" cy="1" r="1"></circle>
                    <circle id="Oval-Copy-68" cx="129" cy="1" r="1"></circle>
                    <circle id="Oval-Copy-69" cx="137" cy="1" r="1"></circle>
                    <circle id="Oval-Copy-70" cx="145" cy="1" r="1"></circle>
                    <circle id="Oval-Copy-71" cx="153" cy="1" r="1"></circle>
                    <circle id="Oval-Copy-72" cx="161" cy="1" r="1"></circle>
                </g>
                <g id="Group-13-Copy-5" transform="translate(0.000000, 40.000000)">
                    <circle id="Oval" cx="1" cy="1" r="1"></circle>
                    <circle id="Oval-Copy-53" cx="9" cy="1" r="1"></circle>
                    <circle id="Oval-Copy-54" cx="17" cy="1" r="1"></circle>
                    <circle id="Oval-Copy-55" cx="25" cy="1" r="1"></circle>
                    <circle id="Oval-Copy-56" cx="33" cy="1" r="1"></circle>
                    <circle id="Oval-Copy-57" cx="41" cy="1" r="1"></circle>
                    <circle id="Oval-Copy-58" cx="49" cy="1" r="1"></circle>
                    <circle id="Oval-Copy-59" cx="57" cy="1" r="1"></circle>
                    <circle id="Oval-Copy-60" cx="65" cy="1" r="1"></circle>
                    <circle id="Oval-Copy-61" cx="73" cy="1" r="1"></circle>
                    <circle id="Oval-Copy-62" cx="81" cy="1" r="1"></circle>
                    <circle id="Oval-Copy-63" cx="89" cy="1" r="1"></circle>
                    <circle id="Oval-Copy-64" cx="97" cy="1" r="1"></circle>
                    <circle id="Oval-Copy-65" cx="105" cy="1" r="1"></circle>
                    <circle id="Oval-Copy-66" cx="113" cy="1" r="1"></circle>
                    <circle id="Oval-Copy-67" cx="121" cy="1" r="1"></circle>
                    <circle id="Oval-Copy-68" cx="129" cy="1" r="1"></circle>
                    <circle id="Oval-Copy-69" cx="137" cy="1" r="1"></circle>
                    <circle id="Oval-Copy-70" cx="145" cy="1" r="1"></circle>
                    <circle id="Oval-Copy-71" cx="153" cy="1" r="1"></circle>
                    <circle id="Oval-Copy-72" cx="161" cy="1" r="1"></circle>
                </g>
                <g id="Group-13-Copy-6" transform="translate(0.000000, 48.000000)">
                    <circle id="Oval" cx="1" cy="1" r="1"></circle>
                    <circle id="Oval-Copy-53" cx="9" cy="1" r="1"></circle>
                    <circle id="Oval-Copy-54" cx="17" cy="1" r="1"></circle>
                    <circle id="Oval-Copy-55" cx="25" cy="1" r="1"></circle>
                    <circle id="Oval-Copy-56" cx="33" cy="1" r="1"></circle>
                    <circle id="Oval-Copy-57" cx="41" cy="1" r="1"></circle>
                    <circle id="Oval-Copy-58" cx="49" cy="1" r="1"></circle>
                    <circle id="Oval-Copy-59" cx="57" cy="1" r="1"></circle>
                    <circle id="Oval-Copy-60" cx="65" cy="1" r="1"></circle>
                    <circle id="Oval-Copy-61" cx="73" cy="1" r="1"></circle>
                    <circle id="Oval-Copy-62" cx="81" cy="1" r="1"></circle>
                    <circle id="Oval-Copy-63" cx="89" cy="1" r="1"></circle>
                    <circle id="Oval-Copy-64" cx="97" cy="1" r="1"></circle>
                    <circle id="Oval-Copy-65" cx="105" cy="1" r="1"></circle>
                    <circle id="Oval-Copy-66" cx="113" cy="1" r="1"></circle>
                    <circle id="Oval-Copy-67" cx="121" cy="1" r="1"></circle>
                    <circle id="Oval-Copy-68" cx="129" cy="1" r="1"></circle>
                    <circle id="Oval-Copy-69" cx="137" cy="1" r="1"></circle>
                    <circle id="Oval-Copy-70" cx="145" cy="1" r="1"></circle>
                    <circle id="Oval-Copy-71" cx="153" cy="1" r="1"></circle>
                    <circle id="Oval-Copy-72" cx="161" cy="1" r="1"></circle>
                </g>
                <g id="Group-13-Copy-7" transform="translate(0.000000, 56.000000)">
                    <circle id="Oval" cx="1" cy="1" r="1"></circle>
                    <circle id="Oval-Copy-53" cx="9" cy="1" r="1"></circle>
                    <circle id="Oval-Copy-54" cx="17" cy="1" r="1"></circle>
                    <circle id="Oval-Copy-55" cx="25" cy="1" r="1"></circle>
                    <circle id="Oval-Copy-56" cx="33" cy="1" r="1"></circle>
                    <circle id="Oval-Copy-57" cx="41" cy="1" r="1"></circle>
                    <circle id="Oval-Copy-58" cx="49" cy="1" r="1"></circle>
                    <circle id="Oval-Copy-59" cx="57" cy="1" r="1"></circle>
                    <circle id="Oval-Copy-60" cx="65" cy="1" r="1"></circle>
                    <circle id="Oval-Copy-61" cx="73" cy="1" r="1"></circle>
                    <circle id="Oval-Copy-62" cx="81" cy="1" r="1"></circle>
                    <circle id="Oval-Copy-63" cx="89" cy="1" r="1"></circle>
                    <circle id="Oval-Copy-64" cx="97" cy="1" r="1"></circle>
                    <circle id="Oval-Copy-65" cx="105" cy="1" r="1"></circle>
                    <circle id="Oval-Copy-66" cx="113" cy="1" r="1"></circle>
                    <circle id="Oval-Copy-67" cx="121" cy="1" r="1"></circle>
                    <circle id="Oval-Copy-68" cx="129" cy="1" r="1"></circle>
                    <circle id="Oval-Copy-69" cx="137" cy="1" r="1"></circle>
                    <circle id="Oval-Copy-70" cx="145" cy="1" r="1"></circle>
                    <circle id="Oval-Copy-71" cx="153" cy="1" r="1"></circle>
                    <circle id="Oval-Copy-72" cx="161" cy="1" r="1"></circle>
                </g>
                <g id="Group-13-Copy-8" transform="translate(0.000000, 64.000000)">
                    <circle id="Oval" cx="1" cy="1" r="1"></circle>
                    <circle id="Oval-Copy-53" cx="9" cy="1" r="1"></circle>
                    <circle id="Oval-Copy-54" cx="17" cy="1" r="1"></circle>
                    <circle id="Oval-Copy-55" cx="25" cy="1" r="1"></circle>
                    <circle id="Oval-Copy-56" cx="33" cy="1" r="1"></circle>
                    <circle id="Oval-Copy-57" cx="41" cy="1" r="1"></circle>
                    <circle id="Oval-Copy-58" cx="49" cy="1" r="1"></circle>
                    <circle id="Oval-Copy-59" cx="57" cy="1" r="1"></circle>
                    <circle id="Oval-Copy-60" cx="65" cy="1" r="1"></circle>
                    <circle id="Oval-Copy-61" cx="73" cy="1" r="1"></circle>
                    <circle id="Oval-Copy-62" cx="81" cy="1" r="1"></circle>
                    <circle id="Oval-Copy-63" cx="89" cy="1" r="1"></circle>
                    <circle id="Oval-Copy-64" cx="97" cy="1" r="1"></circle>
                    <circle id="Oval-Copy-65" cx="105" cy="1" r="1"></circle>
                    <circle id="Oval-Copy-66" cx="113" cy="1" r="1"></circle>
                    <circle id="Oval-Copy-67" cx="121" cy="1" r="1"></circle>
                    <circle id="Oval-Copy-68" cx="129" cy="1" r="1"></circle>
                    <circle id="Oval-Copy-69" cx="137" cy="1" r="1"></circle>
                    <circle id="Oval-Copy-70" cx="145" cy="1" r="1"></circle>
                    <circle id="Oval-Copy-71" cx="153" cy="1" r="1"></circle>
                    <circle id="Oval-Copy-72" cx="161" cy="1" r="1"></circle>
                </g>
                <g id="Group-13-Copy-9" transform="translate(0.000000, 72.000000)">
                    <circle id="Oval" cx="1" cy="1" r="1"></circle>
                    <circle id="Oval-Copy-53" cx="9" cy="1" r="1"></circle>
                    <circle id="Oval-Copy-54" cx="17" cy="1" r="1"></circle>
                    <circle id="Oval-Copy-55" cx="25" cy="1" r="1"></circle>
                    <circle id="Oval-Copy-56" cx="33" cy="1" r="1"></circle>
                    <circle id="Oval-Copy-57" cx="41" cy="1" r="1"></circle>
                    <circle id="Oval-Copy-58" cx="49" cy="1" r="1"></circle>
                    <circle id="Oval-Copy-59" cx="57" cy="1" r="1"></circle>
                    <circle id="Oval-Copy-60" cx="65" cy="1" r="1"></circle>
                    <circle id="Oval-Copy-61" cx="73" cy="1" r="1"></circle>
                    <circle id="Oval-Copy-62" cx="81" cy="1" r="1"></circle>
                    <circle id="Oval-Copy-63" cx="89" cy="1" r="1"></circle>
                    <circle id="Oval-Copy-64" cx="97" cy="1" r="1"></circle>
                    <circle id="Oval-Copy-65" cx="105" cy="1" r="1"></circle>
                    <circle id="Oval-Copy-66" cx="113" cy="1" r="1"></circle>
                    <circle id="Oval-Copy-67" cx="121" cy="1" r="1"></circle>
                    <circle id="Oval-Copy-68" cx="129" cy="1" r="1"></circle>
                    <circle id="Oval-Copy-69" cx="137" cy="1" r="1"></circle>
                    <circle id="Oval-Copy-70" cx="145" cy="1" r="1"></circle>
                    <circle id="Oval-Copy-71" cx="153" cy="1" r="1"></circle>
                    <circle id="Oval-Copy-72" cx="161" cy="1" r="1"></circle>
                </g>
            </g>
        </g>
    </g>
</svg>